HIERARCHY
ROOT Hips
{
  OFFSET -558.044 91.6267 1269.1
  CHANNELS 6 Xposition Yposition Zposition Zrotation Xrotation Yrotation
  JOINT Spine
  {
    OFFSET -3.93732e-05 8 8.78931e-05
    CHANNELS 6 Xposition Yposition Zposition Zrotation Xrotation Yrotation
    JOINT Spine1
    {
      OFFSET 0.00134997 8.00001 0.000181263
      CHANNELS 6 Xposition Yposition Zposition Zrotation Xrotation Yrotation
      JOINT Spine2
      {
        OFFSET 0.00224421 8 0.0030499
        CHANNELS 6 Xposition Yposition Zposition Zrotation Xrotation Yrotation
        JOINT Spine3
        {
          OFFSET 0 8 0
          CHANNELS 6 Xposition Yposition Zposition Zrotation Xrotation Yrotation
          JOINT Neck
          {
            OFFSET -2.7584e-05 17 -0.000185872
            CHANNELS 6 Xposition Yposition Zposition Zrotation Xrotation Yrotation
            JOINT Head
            {
              OFFSET 7.91724e-05 10.8 -5.16131e-05
              CHANNELS 6 Xposition Yposition Zposition Zrotation Xrotation Yrotation
              End Site
              {
                OFFSET 0 20.25 0
              }
            }
          }
          JOINT LeftShoulder
          {
            OFFSET 4.99996 17 0
            CHANNELS 6 Xposition Yposition Zposition Zrotation Xrotation Yrotation
            JOINT LeftShoulder2
            {
              OFFSET 6.45 0 0
              CHANNELS 6 Xposition Yposition Zposition Zrotation Xrotation Yrotation
              JOINT LeftArm
              {
                OFFSET 6.44997 7.66297e-05 -0.000560422
                CHANNELS 6 Xposition Yposition Zposition Zrotation Xrotation Yrotation
                JOINT LeftForeArm
                {
                  OFFSET -0.00423209 -32.4049 -1.99333
                  CHANNELS 6 Xposition Yposition Zposition Zrotation Xrotation Yrotation
                  JOINT LeftHand
                  {
                    OFFSET 0.000258529 -25.6499 1.99974
                    CHANNELS 6 Xposition Yposition Zposition Zrotation Xrotation Yrotation
                    JOINT LeftHandThumb1
                    {
                      OFFSET -0.500952 -1.49657 2.65132
                      CHANNELS 6 Xposition Yposition Zposition Zrotation Xrotation Yrotation
                      JOINT LeftHandThumb2
                      {
                        OFFSET 0.00549495 -3.80185 3.68965
                        CHANNELS 6 Xposition Yposition Zposition Zrotation Xrotation Yrotation
                        JOINT LeftHandThumb3
                        {
                          OFFSET -0.00142458 -2.99763 2.70128
                          CHANNELS 6 Xposition Yposition Zposition Zrotation Xrotation Yrotation
                          End Site
                          {
                            OFFSET -0.000897243 -2.29795 1.80045
                          }
                        }
                      }
                    }
                    JOINT LeftHandIndex
                    {
                      OFFSET 0.000773618 -1.90004 1.60059
                      CHANNELS 6 Xposition Yposition Zposition Zrotation Xrotation Yrotation
                      JOINT LeftHandIndex1
                      {
                        OFFSET -0.0014134 -8.29833 1.9001
                        CHANNELS 6 Xposition Yposition Zposition Zrotation Xrotation Yrotation
                        JOINT LeftHandIndex2
                        {
                          OFFSET -0.000466725 -4.49892 -0.000115433
                          CHANNELS 6 Xposition Yposition Zposition Zrotation Xrotation Yrotation
                          JOINT LeftHandIndex3
                          {
                            OFFSET 0.000775237 -3.39974 6.87293e-05
                            CHANNELS 6 Xposition Yposition Zposition Zrotation Xrotation Yrotation
                            End Site
                            {
                              OFFSET -0.000205873 -2.60092 3.44493e-05
                            }
                          }
                        }
                      }
                    }
                    JOINT LeftHandMiddle
                    {
                      OFFSET -0.249305 -2.20001 0.400288
                      CHANNELS 6 Xposition Yposition Zposition Zrotation Xrotation Yrotation
                      JOINT LeftHandMiddle1
                      {
                        OFFSET 0.000212351 -8.30106 0.999525
                        CHANNELS 6 Xposition Yposition Zposition Zrotation Xrotation Yrotation
                        JOINT LeftHandMiddle2
                        {
                          OFFSET -0.000207747 -4.65022 0.000562935
                          CHANNELS 6 Xposition Yposition Zposition Zrotation Xrotation Yrotation
                          JOINT LeftHandMiddle3
                          {
                            OFFSET 6.38381e-05 -3.30143 -0.000615052
                            CHANNELS 6 Xposition Yposition Zposition Zrotation Xrotation Yrotation
                            End Site
                            {
                              OFFSET -0.00198004 -2.69815 0
                            }
                          }
                        }
                      }
                    }
                    JOINT LeftHandRing
                    {
                      OFFSET -0.499231 -2.14795 -0.798419
                      CHANNELS 6 Xposition Yposition Zposition Zrotation Xrotation Yrotation
                      JOINT LeftHandRing1
                      {
                        OFFSET -0.000649373 -7.74521 -0.19812
                        CHANNELS 6 Xposition Yposition Zposition Zrotation Xrotation Yrotation
                        JOINT LeftHandRing2
                        {
                          OFFSET 0.00765886 -3.79399 -0.00419213
                          CHANNELS 6 Xposition Yposition Zposition Zrotation Xrotation Yrotation
                          JOINT LeftHandRing3
                          {
                            OFFSET -0.000234091 -3.40103 0.00208336
                            CHANNELS 6 Xposition Yposition Zposition Zrotation Xrotation Yrotation
                            End Site
                            {
                              OFFSET 0.00124592 -2.59992 -0.00124691
                            }
                          }
                        }
                      }
                    }
                    JOINT LeftHandPinky
                    {
                      OFFSET -0.750743 -1.74768 -1.8491
                      CHANNELS 6 Xposition Yposition Zposition Zrotation Xrotation Yrotation
                      JOINT LeftHandPinky1
                      {
                        OFFSET 0.000886554 -7.14902 -1.00048
                        CHANNELS 6 Xposition Yposition Zposition Zrotation Xrotation Yrotation
                        JOINT LeftHandPinky2
                        {
                          OFFSET -0.000115987 -3.00003 0.000105311
                          CHANNELS 6 Xposition Yposition Zposition Zrotation Xrotation Yrotation
                          JOINT LeftHandPinky3
                          {
                            OFFSET 0.000607761 -2.34996 -0.000113904
                            CHANNELS 6 Xposition Yposition Zposition Zrotation Xrotation Yrotation
                            End Site
                            {
                              OFFSET 0.000880759 -2.10034 -0.000414202
                            }
                          }
                        }
                      }
                    }
                  }
                }
              }
            }
          }
          JOINT RightShoulder
          {
            OFFSET -5.00007 17 -0.000395587
            CHANNELS 6 Xposition Yposition Zposition Zrotation Xrotation Yrotation
            JOINT RightShoulder2
            {
              OFFSET -6.45 0 0
              CHANNELS 6 Xposition Yposition Zposition Zrotation Xrotation Yrotation
              JOINT RightArm
              {
                OFFSET -6.45001 -0.000111663 -0.00043488
                CHANNELS 6 Xposition Yposition Zposition Zrotation Xrotation Yrotation
                JOINT RightForeArm
                {
                  OFFSET 0.0108372 -32.421 -2.00641
                  CHANNELS 6 Xposition Yposition Zposition Zrotation Xrotation Yrotation
                  JOINT RightHand
                  {
                    OFFSET 2.47695e-05 -25.6499 2.00058
                    CHANNELS 6 Xposition Yposition Zposition Zrotation Xrotation Yrotation
                    JOINT RightHandThumb1
                    {
                      OFFSET 0.499838 -1.4998 2.65021
                      CHANNELS 6 Xposition Yposition Zposition Zrotation Xrotation Yrotation
                      JOINT RightHandThumb2
                      {
                        OFFSET 0.000129909 -3.79993 3.70011
                        CHANNELS 6 Xposition Yposition Zposition Zrotation Xrotation Yrotation
                        JOINT RightHandThumb3
                        {
                          OFFSET 0.000326926 -2.99887 2.70032
                          CHANNELS 6 Xposition Yposition Zposition Zrotation Xrotation Yrotation
                          End Site
                          {
                            OFFSET 0.00251936 -2.30499 1.79878
                          }
                        }
                      }
                    }
                    JOINT RightHandIndex
                    {
                      OFFSET -0.00104709 -1.90097 1.59914
                      CHANNELS 6 Xposition Yposition Zposition Zrotation Xrotation Yrotation
                      JOINT RightHandIndex1
                      {
                        OFFSET 1.91033e-05 -8.29994 1.89994
                        CHANNELS 6 Xposition Yposition Zposition Zrotation Xrotation Yrotation
                        JOINT RightHandIndex2
                        {
                          OFFSET 0.000609043 -4.49918 -0.00211799
                          CHANNELS 6 Xposition Yposition Zposition Zrotation Xrotation Yrotation
                          JOINT RightHandIndex3
                          {
                            OFFSET -0.000938577 -3.3967 -0.00138303
                            CHANNELS 6 Xposition Yposition Zposition Zrotation Xrotation Yrotation
                            End Site
                            {
                              OFFSET -0.00015338 -2.59976 -3.68792e-05
                            }
                          }
                        }
                      }
                    }
                    JOINT RightHandMiddle
                    {
                      OFFSET 0.247765 -2.1994 0.398599
                      CHANNELS 6 Xposition Yposition Zposition Zrotation Xrotation Yrotation
                      JOINT RightHandMiddle1
                      {
                        OFFSET -0.00174175 -8.29884 1.00199
                        CHANNELS 6 Xposition Yposition Zposition Zrotation Xrotation Yrotation
                        JOINT RightHandMiddle2
                        {
                          OFFSET -0.00501106 -4.64991 -0.000961147
                          CHANNELS 6 Xposition Yposition Zposition Zrotation Xrotation Yrotation
                          JOINT RightHandMiddle3
                          {
                            OFFSET -0.000131015 -3.30027 0
                            CHANNELS 6 Xposition Yposition Zposition Zrotation Xrotation Yrotation
                            End Site
                            {
                              OFFSET 0.00494031 -2.70266 -0.00453237
                            }
                          }
                        }
                      }
                    }
                    JOINT RightHandRing
                    {
                      OFFSET 0.500846 -2.14957 -0.799438
                      CHANNELS 6 Xposition Yposition Zposition Zrotation Xrotation Yrotation
                      JOINT RightHandRing1
                      {
                        OFFSET -0.00147744 -7.74934 -0.198687
                        CHANNELS 6 Xposition Yposition Zposition Zrotation Xrotation Yrotation
                        JOINT RightHandRing2
                        {
                          OFFSET -0.00252369 -3.79938 0.000684912
                          CHANNELS 6 Xposition Yposition Zposition Zrotation Xrotation Yrotation
                          JOINT RightHandRing3
                          {
                            OFFSET 0.000661931 -3.39988 0.000657076
                            CHANNELS 6 Xposition Yposition Zposition Zrotation Xrotation Yrotation
                            End Site
                            {
                              OFFSET -0.00439421 -2.60257 0.00135715
                            }
                          }
                        }
                      }
                    }
                    JOINT RightHandPinky
                    {
                      OFFSET 0.750839 -1.75042 -1.85083
                      CHANNELS 6 Xposition Yposition Zposition Zrotation Xrotation Yrotation
                      JOINT RightHandPinky1
                      {
                        OFFSET 0.000569324 -7.15014 -0.999548
                        CHANNELS 6 Xposition Yposition Zposition Zrotation Xrotation Yrotation
                        JOINT RightHandPinky2
                        {
                          OFFSET -0.00147784 -3.00209 0.00244528
                          CHANNELS 6 Xposition Yposition Zposition Zrotation Xrotation Yrotation
                          JOINT RightHandPinky3
                          {
                            OFFSET 0.00179924 -2.35438 -0.0011126
                            CHANNELS 6 Xposition Yposition Zposition Zrotation Xrotation Yrotation
                            End Site
                            {
                              OFFSET -0.00396216 -2.0991 0.00357446
                            }
                          }
                        }
                      }
                    }
                  }
                }
              }
            }
          }
        }
      }
    }
  }
  JOINT LeftUpLeg
  {
    OFFSET 7.99999 0 0
    CHANNELS 6 Xposition Yposition Zposition Zrotation Xrotation Yrotation
    JOINT LeftLeg
    {
      OFFSET -0.000160754 -44.9998 -1.00021
      CHANNELS 6 Xposition Yposition Zposition Zrotation Xrotation Yrotation
      JOINT LeftFoot
      {
        OFFSET -0.00245201 -40.9994 -2.00349
        CHANNELS 6 Xposition Yposition Zposition Zrotation Xrotation Yrotation
        JOINT LeftToeBase
        {
          OFFSET 0.00248215 -7.49994 12.5023
          CHANNELS 6 Xposition Yposition Zposition Zrotation Xrotation Yrotation
          JOINT LeftFootToe
          {
            OFFSET 0 0 4
            CHANNELS 6 Xposition Yposition Zposition Zrotation Xrotation Yrotation
            End Site
            {
              OFFSET 0 0 0
            }
          }
        }
      }
    }
  }
  JOINT RightUpLeg
  {
    OFFSET -7.99999 0 0
    CHANNELS 6 Xposition Yposition Zposition Zrotation Xrotation Yrotation
    JOINT RightLeg
    {
      OFFSET -8.6238e-05 -45.0001 -1.00012
      CHANNELS 6 Xposition Yposition Zposition Zrotation Xrotation Yrotation
      JOINT RightFoot
      {
        OFFSET 7.07436e-05 -41 -1.99991
        CHANNELS 6 Xposition Yposition Zposition Zrotation Xrotation Yrotation
        JOINT RightToeBase
        {
          OFFSET -0.00107739 -7.49969 12.5017
          CHANNELS 6 Xposition Yposition Zposition Zrotation Xrotation Yrotation
          JOINT RightFootToe
          {
            OFFSET 0 0 4
            CHANNELS 6 Xposition Yposition Zposition Zrotation Xrotation Yrotation
            End Site
            {
              OFFSET 0 0 0
            }
          }
        }
      }
    }
  }
}
MOTION
Frames:	3
Frame Time:	0.0111111
-542.46 92.1044 1255.75 3.09087 5.13874 -121.496 2.27374e-13 8 0 8.45331 2.54391 12.7784 0 8 -2.27374e-13 -0.868346 0.783831 4.62353 0 8 1.7053e-13 -0.425894 0.400768 2.31193 -2.27374e-13 8 1.7053e-13 -0.42609 0.400387 2.31158 0 17 -1.7053e-13 2.48924 1.6865 8.34372 2.27374e-13 10.8 0 -0.520918 -9.83018 19.8392 5 17 5.68434e-14 1.99452 3.45262 -3.9362 6.45 1.42109e-14 0 -0.983222 -0.130482 -1.03534 6.45 -8.52651e-14 -5.68434e-14 36.4103 -32.8818 80.9648 1.13687e-13 -32.4 -2 -57.6655 -9.38404 -38.023 0 -25.65 2 63.4669 53.8398 -23.3765 -0.5 -1.5 2.65 -13.5902 -62.9011 8.68425 -1.13687e-13 -3.8 3.7 13.3933 25.2169 3.84865 1.13687e-13 -3 2.7 0.0228476 -0.145928 -0.00979889 4.54747e-13 -1.9 1.6 8.18999e-07 -1.33649e-06 -6.66996e-07 -1.13687e-13 -8.3 1.9 -10.9188 24.2082 2.87886 0 -4.5 0 -15.6007 0.00965389 -0.037643 -1.13687e-13 -3.4 0 -12.4854 0.0125839 -0.0266576 -0.25 -2.2 0.4 8.18999e-07 -1.33649e-06 -6.66996e-07 0 -8.3 1 -7.61746 16.1377 1.43944 -1.13687e-13 -4.65 0 -61.4166 0.0308704 -0.000669131 -1.13687e-13 -3.3 2.27374e-13 -90.0002 -0.000481923 -0.00219173 -0.5 -2.15 -0.8 8.18999e-07 -1.33649e-06 -6.66996e-07 -1.13687e-13 -7.75 -0.2 -2.58103 6.02544 0.286108 2.27374e-13 -3.8 0 -61.9229 0.0177894 0.0236048 0 -3.4 -2.27374e-13 -86.7747 -0.045031 0.0167322 -0.75 -1.75 -1.85 8.18999e-07 -1.33649e-06 -6.66996e-07 -3.41061e-13 -7.15 -1 -0.0695996 -0.526492 0.017688 -1.13687e-13 -3 0 -28.4215 0.030192 0.00466076 -1.13687e-13 -2.35 0 -21.0793 0.0156117 0.00859459 -5 17 -1.13687e-13 6.24632 6.58082 1.95513 -6.45 -5.68434e-14 -1.7053e-13 -1.36626 0.187187 -3.0119 -6.45 0 -1.13687e-13 -50.6888 11.3523 -1.24285 0 -32.4 -2 90.7321 -43.2012 87.7745 0 -25.65 2 -17.539 14.3727 25.7331 0.5 -1.5 2.65 -161.687 86.0713 -31.174 -1.7053e-13 -3.8 3.7 -23.8629 43.2032 2.87936 -1.13687e-13 -3 2.7 0.0211579 28.3873 -0.0238849 5.68434e-14 -1.9 1.6 -5.83524e-07 1.1369e-05 -1.22139e-05 1.13687e-13 -8.3 1.9 1.65363 0.44756 0.00603577 -1.13687e-13 -4.5 0 -0.0218416 -0.0171397 0.0472733 5.11591e-13 -3.4 0 -0.000853546 0.000537628 0.0692258 0.25 -2.2 0.4 -5.83524e-07 1.1369e-05 -1.22139e-05 -1.13687e-13 -8.3 1 4.80855 1.82471 -0.15381 0 -4.65 0 15.5449 6.61393 0.1772 5.68434e-14 -3.3 0 14.6842 0.0106829 0.0137063 0.5 -2.15 -0.8 -5.83524e-07 1.1369e-05 -1.22139e-05 0 -7.75 -0.2 11.2838 4.24648 -0.695033 2.84217e-13 -3.8 2.27374e-13 20.2034 21.2624 3.7167 1.7053e-13 -3.4 2.27374e-13 27.9494 -0.0154881 0.011442 0.75 -1.75 -1.85 -5.83524e-07 1.1369e-05 -1.22139e-05 5.68434e-14 -7.15 -1 14.5972 5.3776 -1.05383 5.68434e-14 -3 0 30.8353 24.6068 3.54697 5.68434e-14 -2.35 0 32.4675 -0.00534664 0.0148531 8 0 1.13687e-13 26.5063 -20.3347 19.1496 -2.27374e-13 -45 -1 -14.8194 4.55217 7.16409 0 -41 -2 5.37803 19.0342 -23.5287 -2.27374e-13 -7.5 12.5 7.82578e-05 -0.0311745 0.141806 0 0 4 5.85634 -2.25178 -3.56667 -8 0 0 9.59204 4.42593 -3.33536 0 -45 -1 -3.17616 -1.04653 -5.52342 0 -41 -2 0.521753 -3.31621 -22.7704 0 -7.5 12.5 -0.0061504 0.253847 0.0574385 0 0 4 -0.173688 1.93835 36.0405 
-542.466 92.1043 1255.76 3.09185 5.14002 -121.493 -2.27374e-13 8 1.7053e-13 8.44569 2.54865 12.778 0 8 -5.68434e-14 -0.864687 0.788807 4.6227 -2.27374e-13 8 1.7053e-13 -0.424053 0.403273 2.31147 -2.27374e-13 8 1.13687e-13 -0.424295 0.402949 2.31134 2.27374e-13 17 -2.27374e-13 2.48656 1.68391 8.33884 4.54747e-13 10.8 1.13687e-13 -0.505559 -9.84194 19.8292 5 17 0 1.997 3.43976 -3.92504 6.45 -1.42109e-14 -5.68434e-14 -0.983323 -0.1333 -1.03558 6.45 -7.10543e-14 -5.68434e-14 36.342 -32.8848 80.9204 0 -32.4 -2 -57.7596 -9.4522 -38.2051 -2.27374e-13 -25.65 2 64.8998 53.0724 -24.6758 -0.5 -1.5 2.65 -12.6384 -63.0479 9.7609 -2.27374e-13 -3.8 3.7 13.9373 25.898 3.75489 0 -3 2.7 0.0285615 -0.149564 -0.00786855 2.27374e-13 -1.9 1.6 8.18999e-07 -1.33649e-06 -6.66996e-07 0 -8.3 1.9 -11.1456 24.4093 2.95863 0 -4.5 0 -19.0465 -0.00862743 -0.0155059 -1.13687e-13 -3.4 0 -14.867 -0.00250628 -0.0152999 -0.25 -2.2 0.4 8.18999e-07 -1.33649e-06 -6.66996e-07 3.41061e-13 -8.3 1 -7.57787 15.8317 1.39021 0 -4.65 2.27374e-13 -63.7181 0.0641951 -0.0201243 5.68434e-14 -3.3 2.27374e-13 -90.0002 -0.000504156 -0.00220518 -0.5 -2.15 -0.8 8.18999e-07 -1.33649e-06 -6.66996e-07 -1.13687e-13 -7.75 -0.2 -2.67894 6.33818 0.297399 -1.13687e-13 -3.8 0 -63.8739 0.00118173 0.019487 1.13687e-13 -3.4 0 -87.3083 -0.0441294 0.0169471 -0.75 -1.75 -1.85 8.18999e-07 -1.33649e-06 -6.66996e-07 -2.27374e-13 -7.15 -1 -0.241532 -0.256251 0.0171663 -1.13687e-13 -3 -1.13687e-13 -29.5999 0.0189795 0.00437489 -1.13687e-13 -2.35 0 -21.7935 0.00937502 0.00751635 -5 17 -1.7053e-13 6.24586 6.56946 1.92983 -6.45 -2.84217e-14 -2.84217e-13 -1.36588 0.187087 -3.01178 -6.45 0 0 -50.6969 11.3459 -1.23379 -1.13687e-13 -32.4 -2 90.7744 -43.1947 87.8399 0 -25.65 2 -17.6493 14.3145 25.9683 0.5 -1.5 2.65 -164.792 86.0986 -27.9375 -1.7053e-13 -3.8 3.7 -23.863 43.2031 2.87938 -1.13687e-13 -3 2.7 0.0210108 28.3875 -0.0239851 5.68434e-14 -1.9 1.6 -5.83524e-07 1.1369e-05 -1.22139e-05 -1.13687e-13 -8.3 1.9 1.61312 0.38973 0.0060426 0 -4.5 0 -0.0219902 -0.0171639 0.0472404 3.97904e-13 -3.4 -2.27374e-13 -0.000857957 0.000569499 0.0691855 0.25 -2.2 0.4 -5.83524e-07 1.1369e-05 -1.22139e-05 0 -8.3 1 4.80805 1.78134 -0.154132 0 -4.65 -2.27374e-13 15.5177 6.60124 0.176879 5.68434e-14 -3.3 0 14.6624 0.0112685 0.0139422 0.5 -2.15 -0.8 -5.83524e-07 1.1369e-05 -1.22139e-05 5.68434e-14 -7.75 -0.2 11.355 4.22499 -0.696291 2.84217e-13 -3.8 0 20.1548 21.1786 3.68506 5.68434e-14 -3.4 -2.27374e-13 27.8665 -0.0155746 0.0110565 0.75 -1.75 -1.85 -5.83524e-07 1.1369e-05 -1.22139e-05 1.13687e-13 -7.15 -1 14.7069 5.36351 -1.06135 0 -3 0 30.7459 24.4704 3.50406 5.68434e-14 -2.35 2.27374e-13 32.3411 -0.00549913 0.014607 8 0 1.7053e-13 26.5063 -20.3405 19.1497 0 -45 -1 -14.8249 4.56553 7.16689 0 -41 -2 5.38482 19.0258 -23.5283 -2.27374e-13 -7.5 12.5 7.68809e-05 -0.0305801 0.141982 0 0 4 5.85445 -2.25477 -3.56661 -8 0 0 9.58454 4.42406 -3.3311 2.27374e-13 -45 -1 -3.16898 -1.04511 -5.52884 0 -41 -2 0.52378 -3.31595 -22.7699 0 -7.5 12.5 -0.00615074 0.253561 0.0575794 0 1.77636e-15 4 -0.175653 1.93763 36.0406 
-542.471 92.1042 1255.77 3.09271 5.14131 -121.491 0 8 0 8.43717 2.55324 12.7776 0 8 -1.13687e-13 -0.86084 0.79377 4.62207 0 8 0 -0.422107 0.405746 2.31107 0 8 5.68434e-14 -0.422068 0.405445 2.31114 2.27374e-13 17 -1.13687e-13 2.48367 1.68131 8.334 2.27374e-13 10.8 -1.13687e-13 -0.488243 -9.85294 19.8194 5 17 0 2.00006 3.42611 -3.91127 6.45 2.84217e-14 5.68434e-14 -0.983424 -0.136788 -1.03581 6.45 -7.10543e-14 0 36.2725 -32.8858 80.8852 1.13687e-13 -32.4 -2 -57.862 -9.50385 -38.3507 2.27374e-13 -25.65 2 66.1303 52.385 -25.7594 -0.5 -1.5 2.65 -11.7291 -63.1551 10.7755 -2.27374e-13 -3.8 3.7 14.4766 26.5456 3.65078 1.13687e-13 -3 2.7 0.0324375 -0.109498 -0.00675484 2.27374e-13 -1.9 1.6 8.18999e-07 -1.33649e-06 -6.66996e-07 1.13687e-13 -8.3 1.9 -11.4125 24.6396 3.0529 2.27374e-13 -4.5 0 -22.5594 -0.0288967 0.00921186 0 -3.4 2.27374e-13 -17.2237 -0.0194115 -0.00244637 -0.25 -2.2 0.4 8.18999e-07 -1.33649e-06 -6.66996e-07 2.27374e-13 -8.3 1 -7.51248 15.3486 1.32307 2.27374e-13 -4.65 0 -66.0191 0.0969722 -0.0393138 1.13687e-13 -3.3 0 -90.0002 -0.000520327 -0.00221027 -0.5 -2.15 -0.8 8.18999e-07 -1.33649e-06 -6.66996e-07 0 -7.75 -0.2 -2.81156 6.63759 0.31066 -1.13687e-13 -3.8 0 -65.8417 -0.0160575 0.0147055 0 -3.4 0 -87.8188 -0.0432136 0.0171545 -0.75 -1.75 -1.85 8.18999e-07 -1.33649e-06 -6.66996e-07 -4.54747e-13 -7.15 -1 -0.511557 -0.0273931 0.0167611 -2.27374e-13 -3 -1.13687e-13 -30.5724 0.00757046 0.00490177 2.27374e-13 -2.35 0 -22.3758 0.00303837 0.00705855 -5 17 -1.13687e-13 6.24244 6.55812 1.90142 -6.45 -2.84217e-14 -2.27374e-13 -1.36551 0.186995 -3.01176 -6.45 0 -5.68434e-14 -50.6959 11.3328 -1.22065 -1.13687e-13 -32.4 -2 90.798 -43.1929 87.8817 -1.13687e-13 -25.65 2 -17.7428 14.2597 26.1783 0.5 -1.5 2.65 -167.501 86.1143 -25.1138 -5.68434e-14 -3.8 3.7 -23.8632 43.2031 2.8794 0 -3 2.7 0.0208637 28.3877 -0.0240882 5.68434e-14 -1.9 1.6 -5.83524e-07 1.1369e-05 -1.22139e-05 5.68434e-14 -8.3 1.9 1.58541 0.340354 0.00605286 -1.13687e-13 -4.5 2.27374e-13 -0.0221428 -0.0171874 0.0472074 4.54747e-13 -3.4 0 -0.000862367 0.000600811 0.0691451 0.25 -2.2 0.4 -5.83524e-07 1.1369e-05 -1.22139e-05 5.68434e-14 -8.3 1 4.82155 1.74267 -0.154491 0 -4.65 0 15.5059 6.59579 0.176781 -1.13687e-13 -3.3 0 14.6531 0.0118652 0.0141596 0.5 -2.15 -0.8 -5.83524e-07 1.1369e-05 -1.22139e-05 1.13687e-13 -7.75 -0.2 11.444 4.20075 -0.69818 1.13687e-13 -3.8 -2.27374e-13 20.1033 21.0906 3.65195 1.7053e-13 -3.4 0 27.7791 -0.0156627 0.0106649 0.75 -1.75 -1.85 -5.83524e-07 1.1369e-05 -1.22139e-05 5.68434e-14 -7.15 -1 14.8361 5.34281 -1.06954 5.68434e-14 -3 2.27374e-13 30.6531 24.3315 3.46071 -5.68434e-14 -2.35 0 32.2119 -0.00564887 0.014359 8 2.84217e-14 0 26.5055 -20.3473 19.1491 0 -45 -1 -14.8274 4.57919 7.16918 0 -41 -2 5.38976 19.0174 -23.5264 -2.27374e-13 -7.5 12.5 7.5453e-05 -0.0299662 0.142161 0 0 4 5.85309 -2.25575 -3.56654 -8 0 -2.27374e-13 9.579 4.42467 -3.327 0 -45 -1 -3.16514 -1.0494 -5.53388 0 -41 -2 0.526719 -3.3125 -22.7693 0 -7.5 12.5 -0.00615107 0.253274 0.0577202 0 -1.77636e-15 4 -0.177628 1.93707 36.0406 
